Roger Vadim's 1959 literary adaptation Les Liaisons Dangereuses comes to DVD for the first time in the U.S. from Wellspring. Presented with a widescreen transfer that preserves the original aspect ratio. The French-language soundtrack is offered in Dolby Digital Stereo with optional English subtitles. Special features include web links, a sampling of French film trailers (Jules et Jim, Place Vendôme, The Return of Martin Guerre, Z), and filmographies for director Roger Vadim and stars Jeanne Moreau and Jean-Louis Trintignant.


 
http://www.imdb.com/title/tt0053002/


 
http://en.wikipedia.org/wiki/Les_Liaisons_dangereuses



Subs:

 
http://www.opensubtitles.org/en/search/sublanguageid-all/idmovie-16796



Director:
Roger Vadim



        Jeanne Moreau	 ... 	Juliette de Merteuil
	Gérard Philipe	... 	Vicomte de Valmont
	Annette Vadim	... 	Marianne Tourvel
	Madeleine Lambert	... 	Mme Rosemonde
	Jeanne Valérie	... 	Cécile Volanges
	Nicolas Vogel	... 	Jerry Court
	Boris Vian	... 	Prévan



Video #2
      ID : 2
      Format : VC-1
      Format profile : MP@ML
      Codec ID : WMV3
      Codec ID/Info : Windows Media Video 9
      Codec ID/Hint : WMV3
      Duration : 1h 42mn
      Bit rate mode : Variable
      Bit rate : 1 000 Kbps
      Width : 640 pixels
      Height : 480 pixels
      Display aspect ratio : 4/3
      Frame rate : 25.000 fps
      Resolution : 24 bits
      Scan type : Progressive
      Bits/(Pixel*Frame) : 0.130
      Stream size : 731 MiB (90%)
   Audio #1
      ID : 1
      Format : WMA2
      Format profile : L
      Codec ID : 161
      Codec ID/Info : Windows Media Audio 2
      Description of the codec : Windows Media Audio 9.2 -  96 kbps, 44 kHz, stereo 2-pass VBR
      Duration : 1h 42mn
      Bit rate mode : Variable
      Bit rate : 95.9 Kbps
      Channel(s) : 2 channels
      Sampling rate : 44.1 KHz
      Resolution : 16 bits
      Stream size : 70.1 MiB (9%)



Please seed at least as much as you D/L.
=======================================
Thanks 

John